<mxfile host="app.diagrams.net" agent="Mozilla/5.0 (Windows NT 10.0; Win64; x64) AppleWebKit/537.36 (KHTML, like Gecko) Chrome/135.0.0.0 Safari/537.36 Edg/135.0.0.0" version="26.2.14">
  <diagram name="第 1 页" id="vQA2ng-3EO4RScTm9dM6">
    <mxGraphModel dx="923" dy="1117" grid="1" gridSize="10" guides="1" tooltips="1" connect="1" arrows="1" fold="1" page="1" pageScale="1" pageWidth="827" pageHeight="1169" math="0" shadow="0">
      <root>
        <mxCell id="0" />
        <mxCell id="1" parent="0" />
        <mxCell id="cLfLJQydz37iMLYelOMT-1" value="" style="rounded=1;whiteSpace=wrap;html=1;sketch=1;curveFitting=1;jiggle=2;strokeColor=#E07A5F;strokeWidth=2;fillColor=none;labelBackgroundColor=none;fontColor=#393C56;" vertex="1" parent="1">
          <mxGeometry x="100" y="190" width="540" height="250" as="geometry" />
        </mxCell>
        <mxCell id="cLfLJQydz37iMLYelOMT-2" value="" style="rounded=0;whiteSpace=wrap;html=1;fillColor=none;dashed=1;dashPattern=8 8;labelBackgroundColor=none;strokeColor=#E07A5F;fontColor=#393C56;" vertex="1" parent="1">
          <mxGeometry x="230" y="270" width="180" height="190" as="geometry" />
        </mxCell>
        <mxCell id="cLfLJQydz37iMLYelOMT-3" value="" style="ellipse;whiteSpace=wrap;html=1;aspect=fixed;fillColor=#F2CC8F;strokeColor=#E07A5F;fontColor=#393C56;opacity=50;strokeWidth=2;labelBackgroundColor=none;" vertex="1" parent="1">
          <mxGeometry x="340" y="225" width="30" height="30" as="geometry" />
        </mxCell>
        <mxCell id="cLfLJQydz37iMLYelOMT-4" value="" style="rounded=0;whiteSpace=wrap;html=1;fillColor=none;dashed=1;dashPattern=8 8;labelBackgroundColor=none;strokeColor=#E07A5F;fontColor=#393C56;" vertex="1" parent="1">
          <mxGeometry x="110" y="270" width="100" height="190" as="geometry" />
        </mxCell>
        <mxCell id="cLfLJQydz37iMLYelOMT-5" value="" style="rounded=0;whiteSpace=wrap;html=1;fillColor=none;dashed=1;dashPattern=8 8;strokeColor=#E07A5F;labelBackgroundColor=none;fontColor=#393C56;" vertex="1" parent="1">
          <mxGeometry x="430" y="250" width="180" height="210" as="geometry" />
        </mxCell>
        <mxCell id="cLfLJQydz37iMLYelOMT-6" style="edgeStyle=orthogonalEdgeStyle;rounded=0;orthogonalLoop=1;jettySize=auto;html=1;exitX=0.5;exitY=0;exitDx=0;exitDy=0;entryX=0.5;entryY=1;entryDx=0;entryDy=0;strokeWidth=2;labelBackgroundColor=none;strokeColor=#E07A5F;fontColor=default;" edge="1" parent="1" source="cLfLJQydz37iMLYelOMT-7" target="cLfLJQydz37iMLYelOMT-25">
          <mxGeometry relative="1" as="geometry" />
        </mxCell>
        <mxCell id="cLfLJQydz37iMLYelOMT-7" value="&lt;font style=&quot;font-size: 20px;&quot;&gt;σ&lt;/font&gt;" style="rounded=1;whiteSpace=wrap;html=1;fillColor=#F2CC8F;strokeColor=#E07A5F;strokeWidth=2;labelBackgroundColor=none;fontColor=#393C56;" vertex="1" parent="1">
          <mxGeometry x="145" y="350" width="40" height="40" as="geometry" />
        </mxCell>
        <mxCell id="cLfLJQydz37iMLYelOMT-8" style="edgeStyle=orthogonalEdgeStyle;rounded=1;orthogonalLoop=1;jettySize=auto;html=1;exitX=0.5;exitY=0;exitDx=0;exitDy=0;entryX=0;entryY=0.5;entryDx=0;entryDy=0;curved=0;strokeWidth=2;labelBackgroundColor=none;strokeColor=#E07A5F;fontColor=default;" edge="1" parent="1" source="cLfLJQydz37iMLYelOMT-9" target="cLfLJQydz37iMLYelOMT-15">
          <mxGeometry relative="1" as="geometry" />
        </mxCell>
        <mxCell id="cLfLJQydz37iMLYelOMT-9" value="&lt;font style=&quot;font-size: 20px;&quot;&gt;σ&lt;/font&gt;" style="rounded=1;whiteSpace=wrap;html=1;fillColor=#F2CC8F;strokeColor=#E07A5F;strokeWidth=2;labelBackgroundColor=none;fontColor=#393C56;" vertex="1" parent="1">
          <mxGeometry x="240" y="350" width="40" height="40" as="geometry" />
        </mxCell>
        <mxCell id="cLfLJQydz37iMLYelOMT-10" style="edgeStyle=orthogonalEdgeStyle;rounded=0;orthogonalLoop=1;jettySize=auto;html=1;exitX=0.5;exitY=0;exitDx=0;exitDy=0;entryX=0.5;entryY=1;entryDx=0;entryDy=0;strokeWidth=2;labelBackgroundColor=none;strokeColor=#E07A5F;fontColor=default;" edge="1" parent="1" source="cLfLJQydz37iMLYelOMT-11" target="cLfLJQydz37iMLYelOMT-15">
          <mxGeometry relative="1" as="geometry" />
        </mxCell>
        <mxCell id="cLfLJQydz37iMLYelOMT-11" value="&lt;font style=&quot;font-size: 20px;&quot;&gt;tanh&lt;/font&gt;" style="rounded=1;whiteSpace=wrap;html=1;fillColor=#F2CC8F;strokeColor=#E07A5F;strokeWidth=2;labelBackgroundColor=none;fontColor=#393C56;" vertex="1" parent="1">
          <mxGeometry x="326.25" y="350" width="57.5" height="40" as="geometry" />
        </mxCell>
        <mxCell id="cLfLJQydz37iMLYelOMT-12" style="edgeStyle=orthogonalEdgeStyle;rounded=0;orthogonalLoop=1;jettySize=auto;html=1;exitX=1;exitY=0.5;exitDx=0;exitDy=0;entryX=0;entryY=0.5;entryDx=0;entryDy=0;strokeWidth=2;labelBackgroundColor=none;strokeColor=#E07A5F;fontColor=default;" edge="1" parent="1" source="cLfLJQydz37iMLYelOMT-13" target="cLfLJQydz37iMLYelOMT-19">
          <mxGeometry relative="1" as="geometry" />
        </mxCell>
        <mxCell id="cLfLJQydz37iMLYelOMT-13" value="&lt;font style=&quot;font-size: 20px;&quot;&gt;σ&lt;/font&gt;" style="rounded=1;whiteSpace=wrap;html=1;fillColor=#F2CC8F;strokeColor=#E07A5F;strokeWidth=2;labelBackgroundColor=none;fontColor=#393C56;" vertex="1" parent="1">
          <mxGeometry x="460" y="350" width="40" height="40" as="geometry" />
        </mxCell>
        <mxCell id="cLfLJQydz37iMLYelOMT-14" style="edgeStyle=orthogonalEdgeStyle;rounded=0;orthogonalLoop=1;jettySize=auto;html=1;exitX=0.5;exitY=0;exitDx=0;exitDy=0;entryX=0.5;entryY=1;entryDx=0;entryDy=0;strokeWidth=2;labelBackgroundColor=none;strokeColor=#E07A5F;fontColor=default;" edge="1" parent="1" source="cLfLJQydz37iMLYelOMT-15" target="cLfLJQydz37iMLYelOMT-3">
          <mxGeometry relative="1" as="geometry" />
        </mxCell>
        <mxCell id="cLfLJQydz37iMLYelOMT-15" value="" style="ellipse;whiteSpace=wrap;html=1;aspect=fixed;fillColor=#F2CC8F;strokeColor=#E07A5F;fontColor=#393C56;opacity=50;strokeWidth=2;labelBackgroundColor=none;" vertex="1" parent="1">
          <mxGeometry x="340" y="285" width="30" height="30" as="geometry" />
        </mxCell>
        <mxCell id="cLfLJQydz37iMLYelOMT-16" style="edgeStyle=orthogonalEdgeStyle;rounded=0;orthogonalLoop=1;jettySize=auto;html=1;exitX=0.5;exitY=1;exitDx=0;exitDy=0;entryX=0.5;entryY=0;entryDx=0;entryDy=0;strokeWidth=2;labelBackgroundColor=none;strokeColor=#E07A5F;fontColor=default;" edge="1" parent="1" source="cLfLJQydz37iMLYelOMT-17" target="cLfLJQydz37iMLYelOMT-19">
          <mxGeometry relative="1" as="geometry" />
        </mxCell>
        <mxCell id="cLfLJQydz37iMLYelOMT-17" value="&lt;font style=&quot;font-size: 20px;&quot;&gt;tanh&lt;/font&gt;" style="ellipse;whiteSpace=wrap;html=1;fillColor=#F2CC8F;strokeColor=#E07A5F;fontColor=#393C56;opacity=50;strokeWidth=2;labelBackgroundColor=none;" vertex="1" parent="1">
          <mxGeometry x="537.5" y="280" width="65" height="40" as="geometry" />
        </mxCell>
        <mxCell id="cLfLJQydz37iMLYelOMT-18" style="edgeStyle=orthogonalEdgeStyle;rounded=1;orthogonalLoop=1;jettySize=auto;html=1;exitX=0.5;exitY=1;exitDx=0;exitDy=0;curved=0;strokeWidth=2;labelBackgroundColor=none;strokeColor=#E07A5F;fontColor=default;" edge="1" parent="1" source="cLfLJQydz37iMLYelOMT-19">
          <mxGeometry relative="1" as="geometry">
            <mxPoint x="740.909090909091" y="410" as="targetPoint" />
            <Array as="points">
              <mxPoint x="570" y="410" />
            </Array>
          </mxGeometry>
        </mxCell>
        <mxCell id="cLfLJQydz37iMLYelOMT-19" value="" style="ellipse;whiteSpace=wrap;html=1;aspect=fixed;fillColor=#F2CC8F;strokeColor=#E07A5F;fontColor=#393C56;opacity=50;strokeWidth=2;labelBackgroundColor=none;" vertex="1" parent="1">
          <mxGeometry x="555" y="355" width="30" height="30" as="geometry" />
        </mxCell>
        <mxCell id="cLfLJQydz37iMLYelOMT-20" value="" style="endArrow=none;html=1;rounded=0;entryX=0;entryY=0.5;entryDx=0;entryDy=0;strokeWidth=2;labelBackgroundColor=none;strokeColor=#E07A5F;fontColor=default;" edge="1" parent="1" target="cLfLJQydz37iMLYelOMT-25">
          <mxGeometry width="50" height="50" relative="1" as="geometry">
            <mxPoint x="50" y="240" as="sourcePoint" />
            <mxPoint x="145" y="239.1400000000002" as="targetPoint" />
          </mxGeometry>
        </mxCell>
        <mxCell id="cLfLJQydz37iMLYelOMT-21" value="" style="endArrow=none;html=1;rounded=0;exitX=1;exitY=0.5;exitDx=0;exitDy=0;entryX=0;entryY=0.5;entryDx=0;entryDy=0;strokeWidth=2;labelBackgroundColor=none;strokeColor=#E07A5F;fontColor=default;" edge="1" parent="1" source="cLfLJQydz37iMLYelOMT-25" target="cLfLJQydz37iMLYelOMT-3">
          <mxGeometry width="50" height="50" relative="1" as="geometry">
            <mxPoint x="185" y="239.1400000000002" as="sourcePoint" />
            <mxPoint x="335.0000000000025" y="239.1400000000002" as="targetPoint" />
          </mxGeometry>
        </mxCell>
        <mxCell id="cLfLJQydz37iMLYelOMT-22" value="" style="endArrow=none;html=1;rounded=1;entryX=0.5;entryY=1;entryDx=0;entryDy=0;curved=0;strokeWidth=2;labelBackgroundColor=none;strokeColor=#E07A5F;fontColor=default;" edge="1" parent="1">
          <mxGeometry width="50" height="50" relative="1" as="geometry">
            <mxPoint x="150" y="520" as="sourcePoint" />
            <mxPoint x="164.74" y="390" as="targetPoint" />
            <Array as="points">
              <mxPoint x="150" y="410" />
              <mxPoint x="165" y="410" />
            </Array>
          </mxGeometry>
        </mxCell>
        <mxCell id="cLfLJQydz37iMLYelOMT-23" value="" style="endArrow=none;html=1;rounded=1;entryX=0.5;entryY=1;entryDx=0;entryDy=0;curved=0;strokeWidth=2;labelBackgroundColor=none;strokeColor=#E07A5F;fontColor=default;" edge="1" parent="1" target="cLfLJQydz37iMLYelOMT-9">
          <mxGeometry width="50" height="50" relative="1" as="geometry">
            <mxPoint x="190" y="410" as="sourcePoint" />
            <mxPoint x="280" y="390" as="targetPoint" />
            <Array as="points">
              <mxPoint x="240" y="410" />
              <mxPoint x="260" y="410" />
            </Array>
          </mxGeometry>
        </mxCell>
        <mxCell id="cLfLJQydz37iMLYelOMT-24" value="" style="endArrow=none;html=1;rounded=0;exitX=0.5;exitY=1;exitDx=0;exitDy=0;entryX=0.5;entryY=0;entryDx=0;entryDy=0;labelBackgroundColor=none;strokeColor=#E07A5F;fontColor=default;" edge="1" parent="1" source="cLfLJQydz37iMLYelOMT-3" target="cLfLJQydz37iMLYelOMT-3">
          <mxGeometry width="50" height="50" relative="1" as="geometry">
            <mxPoint x="340" y="180" as="sourcePoint" />
            <mxPoint x="390" y="130" as="targetPoint" />
          </mxGeometry>
        </mxCell>
        <mxCell id="cLfLJQydz37iMLYelOMT-25" value="" style="ellipse;whiteSpace=wrap;html=1;aspect=fixed;fillColor=#F2CC8F;strokeColor=#E07A5F;fontColor=#393C56;opacity=50;strokeWidth=2;labelBackgroundColor=none;" vertex="1" parent="1">
          <mxGeometry x="150" y="225" width="30" height="30" as="geometry" />
        </mxCell>
        <mxCell id="cLfLJQydz37iMLYelOMT-26" value="" style="endArrow=none;html=1;rounded=0;exitX=0;exitY=1;exitDx=0;exitDy=0;entryX=1;entryY=0;entryDx=0;entryDy=0;labelBackgroundColor=none;strokeColor=#E07A5F;fontColor=default;" edge="1" parent="1" source="cLfLJQydz37iMLYelOMT-15" target="cLfLJQydz37iMLYelOMT-15">
          <mxGeometry width="50" height="50" relative="1" as="geometry">
            <mxPoint x="270" y="330" as="sourcePoint" />
            <mxPoint x="320" y="280" as="targetPoint" />
          </mxGeometry>
        </mxCell>
        <mxCell id="cLfLJQydz37iMLYelOMT-27" value="" style="endArrow=none;html=1;rounded=0;exitX=0;exitY=0;exitDx=0;exitDy=0;entryX=1;entryY=1;entryDx=0;entryDy=0;labelBackgroundColor=none;strokeColor=#E07A5F;fontColor=default;" edge="1" parent="1" source="cLfLJQydz37iMLYelOMT-15" target="cLfLJQydz37iMLYelOMT-15">
          <mxGeometry width="50" height="50" relative="1" as="geometry">
            <mxPoint x="300" y="200" as="sourcePoint" />
            <mxPoint x="350" y="150" as="targetPoint" />
          </mxGeometry>
        </mxCell>
        <mxCell id="cLfLJQydz37iMLYelOMT-28" value="" style="endArrow=classic;html=1;rounded=1;curved=0;strokeWidth=2;labelBackgroundColor=none;strokeColor=#E07A5F;fontColor=default;" edge="1" parent="1">
          <mxGeometry width="50" height="50" relative="1" as="geometry">
            <mxPoint x="550" y="240" as="sourcePoint" />
            <mxPoint x="570" y="280" as="targetPoint" />
            <Array as="points">
              <mxPoint x="570" y="240" />
            </Array>
          </mxGeometry>
        </mxCell>
        <mxCell id="cLfLJQydz37iMLYelOMT-29" value="" style="endArrow=none;html=1;rounded=0;exitX=0;exitY=1;exitDx=0;exitDy=0;entryX=1;entryY=0;entryDx=0;entryDy=0;labelBackgroundColor=none;strokeColor=#E07A5F;fontColor=default;" edge="1" parent="1" source="cLfLJQydz37iMLYelOMT-25" target="cLfLJQydz37iMLYelOMT-25">
          <mxGeometry width="50" height="50" relative="1" as="geometry">
            <mxPoint x="150" y="260" as="sourcePoint" />
            <mxPoint x="180" y="230" as="targetPoint" />
          </mxGeometry>
        </mxCell>
        <mxCell id="cLfLJQydz37iMLYelOMT-30" value="" style="endArrow=none;html=1;rounded=0;exitX=0;exitY=0;exitDx=0;exitDy=0;entryX=1;entryY=1;entryDx=0;entryDy=0;labelBackgroundColor=none;strokeColor=#E07A5F;fontColor=default;" edge="1" parent="1" source="cLfLJQydz37iMLYelOMT-25" target="cLfLJQydz37iMLYelOMT-25">
          <mxGeometry width="50" height="50" relative="1" as="geometry">
            <mxPoint x="170" y="220" as="sourcePoint" />
            <mxPoint x="220" y="170" as="targetPoint" />
          </mxGeometry>
        </mxCell>
        <mxCell id="cLfLJQydz37iMLYelOMT-31" value="" style="endArrow=none;html=1;rounded=0;exitX=0;exitY=1;exitDx=0;exitDy=0;entryX=1;entryY=0;entryDx=0;entryDy=0;labelBackgroundColor=none;strokeColor=#E07A5F;fontColor=default;" edge="1" parent="1" source="cLfLJQydz37iMLYelOMT-19" target="cLfLJQydz37iMLYelOMT-19">
          <mxGeometry width="50" height="50" relative="1" as="geometry">
            <mxPoint x="540" y="520" as="sourcePoint" />
            <mxPoint x="590" y="470" as="targetPoint" />
          </mxGeometry>
        </mxCell>
        <mxCell id="cLfLJQydz37iMLYelOMT-32" value="" style="endArrow=none;html=1;rounded=0;entryX=0;entryY=0;entryDx=0;entryDy=0;exitX=1;exitY=1;exitDx=0;exitDy=0;labelBackgroundColor=none;strokeColor=#E07A5F;fontColor=default;" edge="1" parent="1" source="cLfLJQydz37iMLYelOMT-19" target="cLfLJQydz37iMLYelOMT-19">
          <mxGeometry width="50" height="50" relative="1" as="geometry">
            <mxPoint x="520" y="510" as="sourcePoint" />
            <mxPoint x="570" y="460" as="targetPoint" />
          </mxGeometry>
        </mxCell>
        <mxCell id="cLfLJQydz37iMLYelOMT-33" value="" style="endArrow=classic;html=1;rounded=0;exitX=0.936;exitY=0.5;exitDx=0;exitDy=0;exitPerimeter=0;strokeWidth=2;labelBackgroundColor=none;strokeColor=#E07A5F;fontColor=default;" edge="1" parent="1" source="cLfLJQydz37iMLYelOMT-3">
          <mxGeometry width="50" height="50" relative="1" as="geometry">
            <mxPoint x="375" y="239.84" as="sourcePoint" />
            <mxPoint x="740" y="240" as="targetPoint" />
          </mxGeometry>
        </mxCell>
        <mxCell id="cLfLJQydz37iMLYelOMT-34" value="" style="endArrow=classic;html=1;rounded=1;curved=0;strokeWidth=2;labelBackgroundColor=none;strokeColor=#E07A5F;fontColor=default;" edge="1" parent="1">
          <mxGeometry width="50" height="50" relative="1" as="geometry">
            <mxPoint x="580" y="410" as="sourcePoint" />
            <mxPoint x="620" y="80" as="targetPoint" />
            <Array as="points">
              <mxPoint x="620" y="410" />
            </Array>
          </mxGeometry>
        </mxCell>
        <mxCell id="cLfLJQydz37iMLYelOMT-35" value="&lt;font style=&quot;font-size: 20px;&quot; face=&quot;Verdana&quot;&gt;c(t-1)&lt;/font&gt;" style="text;html=1;align=center;verticalAlign=middle;whiteSpace=wrap;rounded=0;labelBackgroundColor=none;fontColor=#393C56;" vertex="1" parent="1">
          <mxGeometry x="10" y="200" width="60" height="30" as="geometry" />
        </mxCell>
        <mxCell id="cLfLJQydz37iMLYelOMT-36" value="&lt;font style=&quot;font-size: 20px;&quot; face=&quot;Verdana&quot;&gt;h(t-1)&lt;/font&gt;" style="text;html=1;align=center;verticalAlign=middle;whiteSpace=wrap;rounded=0;labelBackgroundColor=none;fontColor=#393C56;" vertex="1" parent="1">
          <mxGeometry y="370" width="80" height="30" as="geometry" />
        </mxCell>
        <mxCell id="cLfLJQydz37iMLYelOMT-37" value="&lt;font style=&quot;font-size: 20px;&quot; face=&quot;Verdana&quot;&gt;f(t)&lt;/font&gt;" style="text;html=1;align=center;verticalAlign=middle;whiteSpace=wrap;rounded=0;labelBackgroundColor=none;fontColor=#393C56;" vertex="1" parent="1">
          <mxGeometry x="170" y="295" width="40" height="30" as="geometry" />
        </mxCell>
        <mxCell id="cLfLJQydz37iMLYelOMT-38" value="&lt;font style=&quot;font-size: 20px;&quot; face=&quot;Verdana&quot;&gt;i(t)&lt;/font&gt;" style="text;html=1;align=center;verticalAlign=middle;whiteSpace=wrap;rounded=0;labelBackgroundColor=none;fontColor=#393C56;" vertex="1" parent="1">
          <mxGeometry x="270" y="265" width="40" height="30" as="geometry" />
        </mxCell>
        <mxCell id="cLfLJQydz37iMLYelOMT-39" value="&lt;font style=&quot;font-size: 20px;&quot; face=&quot;Verdana&quot;&gt;c(t)&lt;/font&gt;" style="text;html=1;align=center;verticalAlign=middle;whiteSpace=wrap;rounded=0;labelBackgroundColor=none;fontColor=#393C56;" vertex="1" parent="1">
          <mxGeometry x="357" y="315" width="53" height="30" as="geometry" />
        </mxCell>
        <mxCell id="cLfLJQydz37iMLYelOMT-40" value="" style="endArrow=none;html=1;rounded=1;entryX=0.5;entryY=1;entryDx=0;entryDy=0;curved=0;strokeWidth=2;labelBackgroundColor=none;strokeColor=#E07A5F;fontColor=default;" edge="1" parent="1" target="cLfLJQydz37iMLYelOMT-11">
          <mxGeometry width="50" height="50" relative="1" as="geometry">
            <mxPoint x="320" y="410" as="sourcePoint" />
            <mxPoint x="380" y="410" as="targetPoint" />
            <Array as="points">
              <mxPoint x="355" y="410" />
            </Array>
          </mxGeometry>
        </mxCell>
        <mxCell id="cLfLJQydz37iMLYelOMT-41" value="" style="endArrow=classic;html=1;rounded=1;entryX=0.5;entryY=1;entryDx=0;entryDy=0;curved=0;strokeWidth=2;labelBackgroundColor=none;strokeColor=#E07A5F;fontColor=default;" edge="1" parent="1" target="cLfLJQydz37iMLYelOMT-13">
          <mxGeometry width="50" height="50" relative="1" as="geometry">
            <mxPoint x="50" y="410" as="sourcePoint" />
            <mxPoint x="160" y="370" as="targetPoint" />
            <Array as="points">
              <mxPoint x="480" y="410" />
            </Array>
          </mxGeometry>
        </mxCell>
        <mxCell id="cLfLJQydz37iMLYelOMT-42" value="&lt;font face=&quot;Verdana&quot; style=&quot;font-size: 20px;&quot;&gt;~&lt;/font&gt;" style="text;html=1;align=center;verticalAlign=middle;whiteSpace=wrap;rounded=0;labelBackgroundColor=none;fontColor=#393C56;" vertex="1" parent="1">
          <mxGeometry x="350" y="315" width="40" height="10" as="geometry" />
        </mxCell>
        <mxCell id="cLfLJQydz37iMLYelOMT-43" value="" style="ellipse;whiteSpace=wrap;html=1;align=center;aspect=fixed;fillColor=none;strokeColor=none;resizable=0;perimeter=centerPerimeter;rotatable=0;allowArrows=0;points=[];outlineConnect=1;labelBackgroundColor=none;fontColor=#393C56;" vertex="1" parent="1">
          <mxGeometry x="120" y="360" width="10" height="10" as="geometry" />
        </mxCell>
        <mxCell id="cLfLJQydz37iMLYelOMT-44" value="" style="rounded=0;orthogonalLoop=1;jettySize=auto;html=1;endArrow=halfCircle;endFill=0;endSize=6;strokeWidth=2;sketch=0;fontSize=12;curved=1;labelBackgroundColor=none;strokeColor=#E07A5F;fontColor=default;" edge="1" parent="1">
          <mxGeometry relative="1" as="geometry">
            <mxPoint x="145" y="370" as="sourcePoint" />
            <mxPoint x="125" y="370" as="targetPoint" />
          </mxGeometry>
        </mxCell>
        <mxCell id="cLfLJQydz37iMLYelOMT-45" value="" style="rounded=0;orthogonalLoop=1;jettySize=auto;html=1;endArrow=halfCircle;endFill=0;endSize=6;strokeWidth=2;sketch=0;fontSize=12;curved=1;labelBackgroundColor=none;strokeColor=#E07A5F;fontColor=default;" edge="1" parent="1">
          <mxGeometry relative="1" as="geometry">
            <mxPoint x="240" y="370" as="sourcePoint" />
            <mxPoint x="220" y="370" as="targetPoint" />
          </mxGeometry>
        </mxCell>
        <mxCell id="cLfLJQydz37iMLYelOMT-46" value="" style="rounded=0;orthogonalLoop=1;jettySize=auto;html=1;endArrow=halfCircle;endFill=0;endSize=6;strokeWidth=2;sketch=0;fontSize=12;curved=1;labelBackgroundColor=none;strokeColor=#E07A5F;fontColor=default;" edge="1" parent="1">
          <mxGeometry relative="1" as="geometry">
            <mxPoint x="326.25" y="369.77" as="sourcePoint" />
            <mxPoint x="306.25" y="369.77" as="targetPoint" />
          </mxGeometry>
        </mxCell>
        <mxCell id="cLfLJQydz37iMLYelOMT-47" value="" style="rounded=0;orthogonalLoop=1;jettySize=auto;html=1;endArrow=halfCircle;endFill=0;endSize=6;strokeWidth=2;sketch=0;fontSize=12;curved=1;labelBackgroundColor=none;strokeColor=#E07A5F;fontColor=default;" edge="1" parent="1">
          <mxGeometry relative="1" as="geometry">
            <mxPoint x="460" y="369.52" as="sourcePoint" />
            <mxPoint x="440" y="369.52" as="targetPoint" />
          </mxGeometry>
        </mxCell>
        <mxCell id="cLfLJQydz37iMLYelOMT-48" value="" style="endArrow=none;html=1;rounded=0;exitX=0;exitY=0.5;exitDx=0;exitDy=0;entryX=1;entryY=0.5;entryDx=0;entryDy=0;labelBackgroundColor=none;strokeColor=#E07A5F;fontColor=default;" edge="1" parent="1" source="cLfLJQydz37iMLYelOMT-3" target="cLfLJQydz37iMLYelOMT-3">
          <mxGeometry width="50" height="50" relative="1" as="geometry">
            <mxPoint x="335.0000000000025" y="239.1400000000002" as="sourcePoint" />
            <mxPoint x="374.9999999999975" y="239.1400000000002" as="targetPoint" />
          </mxGeometry>
        </mxCell>
        <mxCell id="cLfLJQydz37iMLYelOMT-49" value="" style="endArrow=none;html=1;rounded=0;exitX=0.5;exitY=1;exitDx=0;exitDy=0;entryX=0.5;entryY=0;entryDx=0;entryDy=0;labelBackgroundColor=none;strokeColor=#E07A5F;fontColor=default;" edge="1" parent="1" source="cLfLJQydz37iMLYelOMT-3" target="cLfLJQydz37iMLYelOMT-3">
          <mxGeometry width="50" height="50" relative="1" as="geometry">
            <mxPoint x="290" y="190" as="sourcePoint" />
            <mxPoint x="340" y="140" as="targetPoint" />
          </mxGeometry>
        </mxCell>
        <mxCell id="cLfLJQydz37iMLYelOMT-50" value="&lt;font style=&quot;font-size: 20px;&quot; face=&quot;Verdana&quot;&gt;h(t)&lt;/font&gt;" style="text;html=1;align=center;verticalAlign=middle;whiteSpace=wrap;rounded=0;labelBackgroundColor=none;fontColor=#393C56;" vertex="1" parent="1">
          <mxGeometry x="590" y="40" width="60" height="30" as="geometry" />
        </mxCell>
        <mxCell id="cLfLJQydz37iMLYelOMT-51" value="&lt;font style=&quot;font-size: 20px;&quot; face=&quot;Verdana&quot;&gt;c(t)&lt;/font&gt;" style="text;html=1;align=center;verticalAlign=middle;whiteSpace=wrap;rounded=0;labelBackgroundColor=none;fontColor=#393C56;" vertex="1" parent="1">
          <mxGeometry x="660" y="200" width="80" height="30" as="geometry" />
        </mxCell>
        <mxCell id="cLfLJQydz37iMLYelOMT-52" value="&lt;font style=&quot;font-size: 20px;&quot; face=&quot;Verdana&quot;&gt;h(t)&lt;/font&gt;" style="text;html=1;align=center;verticalAlign=middle;whiteSpace=wrap;rounded=0;labelBackgroundColor=none;fontColor=#393C56;" vertex="1" parent="1">
          <mxGeometry x="660" y="370" width="80" height="30" as="geometry" />
        </mxCell>
        <mxCell id="cLfLJQydz37iMLYelOMT-53" value="&lt;font style=&quot;font-size: 20px;&quot; face=&quot;Verdana&quot;&gt;o(t)&lt;/font&gt;" style="text;html=1;align=center;verticalAlign=middle;whiteSpace=wrap;rounded=0;labelBackgroundColor=none;fontColor=#393C56;" vertex="1" parent="1">
          <mxGeometry x="510" y="330" width="40" height="30" as="geometry" />
        </mxCell>
        <mxCell id="cLfLJQydz37iMLYelOMT-54" value="&lt;span style=&quot;font-size: 20px;&quot;&gt;&lt;b&gt;输出门&lt;/b&gt;&lt;/span&gt;" style="text;html=1;align=center;verticalAlign=middle;whiteSpace=wrap;rounded=0;labelBackgroundColor=none;fontColor=#393C56;" vertex="1" parent="1">
          <mxGeometry x="465" y="145" width="120" height="30" as="geometry" />
        </mxCell>
        <mxCell id="cLfLJQydz37iMLYelOMT-55" value="&lt;span style=&quot;font-size: 20px;&quot;&gt;&lt;b&gt;输入门&lt;/b&gt;&lt;/span&gt;" style="text;html=1;align=center;verticalAlign=middle;whiteSpace=wrap;rounded=0;labelBackgroundColor=none;fontColor=#393C56;" vertex="1" parent="1">
          <mxGeometry x="260" y="145" width="120" height="30" as="geometry" />
        </mxCell>
        <mxCell id="cLfLJQydz37iMLYelOMT-56" value="&lt;span style=&quot;font-size: 20px;&quot;&gt;&lt;b&gt;遗忘门&lt;/b&gt;&lt;/span&gt;" style="text;html=1;align=center;verticalAlign=middle;whiteSpace=wrap;rounded=0;labelBackgroundColor=none;fontColor=#393C56;" vertex="1" parent="1">
          <mxGeometry x="112.5" y="145" width="95" height="30" as="geometry" />
        </mxCell>
        <mxCell id="cLfLJQydz37iMLYelOMT-57" value="&lt;font style=&quot;font-size: 20px;&quot; face=&quot;Verdana&quot;&gt;x(t)&lt;/font&gt;" style="text;html=1;align=center;verticalAlign=middle;whiteSpace=wrap;rounded=0;labelBackgroundColor=none;fontColor=#393C56;" vertex="1" parent="1">
          <mxGeometry x="130" y="520" width="40" height="30" as="geometry" />
        </mxCell>
        <mxCell id="cLfLJQydz37iMLYelOMT-58" value="" style="rounded=1;whiteSpace=wrap;html=1;dashed=1;dashPattern=8 8;labelBackgroundColor=none;fillColor=#F2CC8F;strokeColor=#E07A5F;fontColor=#393C56;" vertex="1" parent="1">
          <mxGeometry x="357" y="490" width="275" height="60" as="geometry" />
        </mxCell>
        <mxCell id="cLfLJQydz37iMLYelOMT-59" value="" style="rounded=0;orthogonalLoop=1;jettySize=auto;html=1;endArrow=halfCircle;endFill=0;endSize=6;strokeWidth=2;sketch=0;fontSize=12;curved=1;labelBackgroundColor=none;strokeColor=#E07A5F;fontColor=default;" edge="1" parent="1">
          <mxGeometry relative="1" as="geometry">
            <mxPoint x="607" y="510" as="sourcePoint" />
            <mxPoint x="587" y="510" as="targetPoint" />
          </mxGeometry>
        </mxCell>
        <mxCell id="cLfLJQydz37iMLYelOMT-60" value="" style="ellipse;whiteSpace=wrap;html=1;align=center;aspect=fixed;fillColor=none;strokeColor=none;resizable=0;perimeter=centerPerimeter;rotatable=0;allowArrows=0;points=[];outlineConnect=1;labelBackgroundColor=none;fontColor=#393C56;" vertex="1" parent="1">
          <mxGeometry x="572" y="520" width="10" height="10" as="geometry" />
        </mxCell>
        <mxCell id="cLfLJQydz37iMLYelOMT-61" value="" style="endArrow=classic;html=1;rounded=0;labelBackgroundColor=none;strokeColor=#E07A5F;fontColor=default;" edge="1" parent="1">
          <mxGeometry width="50" height="50" relative="1" as="geometry">
            <mxPoint x="512" y="509.77" as="sourcePoint" />
            <mxPoint x="557" y="509.77" as="targetPoint" />
          </mxGeometry>
        </mxCell>
        <mxCell id="cLfLJQydz37iMLYelOMT-62" value="" style="ellipse;whiteSpace=wrap;html=1;aspect=fixed;fillColor=#F2CC8F;strokeColor=#E07A5F;fontColor=#393C56;opacity=50;strokeWidth=2;labelBackgroundColor=none;" vertex="1" parent="1">
          <mxGeometry x="457" y="500" width="20" height="20" as="geometry" />
        </mxCell>
        <mxCell id="cLfLJQydz37iMLYelOMT-63" value="" style="rounded=1;whiteSpace=wrap;html=1;fillColor=#F2CC8F;strokeColor=#E07A5F;strokeWidth=2;labelBackgroundColor=none;fontColor=#393C56;" vertex="1" parent="1">
          <mxGeometry x="392" y="500" width="20" height="20" as="geometry" />
        </mxCell>
        <mxCell id="cLfLJQydz37iMLYelOMT-64" value="神经节点" style="text;html=1;align=center;verticalAlign=middle;whiteSpace=wrap;rounded=0;labelBackgroundColor=none;fontColor=#393C56;" vertex="1" parent="1">
          <mxGeometry x="372" y="520" width="60" height="30" as="geometry" />
        </mxCell>
        <mxCell id="cLfLJQydz37iMLYelOMT-65" value="点对点操作" style="text;html=1;align=center;verticalAlign=middle;whiteSpace=wrap;rounded=0;labelBackgroundColor=none;fontColor=#393C56;" vertex="1" parent="1">
          <mxGeometry x="431" y="520" width="70" height="30" as="geometry" />
        </mxCell>
        <mxCell id="cLfLJQydz37iMLYelOMT-66" value="参数传递" style="text;html=1;align=center;verticalAlign=middle;whiteSpace=wrap;rounded=0;labelBackgroundColor=none;fontColor=#393C56;" vertex="1" parent="1">
          <mxGeometry x="504" y="520" width="60" height="30" as="geometry" />
        </mxCell>
        <mxCell id="cLfLJQydz37iMLYelOMT-67" value="偏置" style="text;html=1;align=center;verticalAlign=middle;whiteSpace=wrap;rounded=0;labelBackgroundColor=none;fontColor=#393C56;" vertex="1" parent="1">
          <mxGeometry x="564" y="520" width="60" height="30" as="geometry" />
        </mxCell>
      </root>
    </mxGraphModel>
  </diagram>
</mxfile>
